{
	"patcher" : 	{
		"fileversion" : 1,
		"appversion" : 		{
			"major" : 6,
			"minor" : 1,
			"revision" : 5,
			"architecture" : "x64"
		}
,
		"rect" : [ 455.0, 44.0, 1215.0, 462.0 ],
		"bglocked" : 0,
		"openinpresentation" : 1,
		"default_fontsize" : 12.0,
		"default_fontface" : 0,
		"default_fontname" : "Arial",
		"gridonopen" : 0,
		"gridsize" : [ 10.0, 10.0 ],
		"gridsnaponopen" : 0,
		"statusbarvisible" : 2,
		"toolbarvisible" : 1,
		"boxanimatetime" : 200,
		"imprint" : 0,
		"enablehscroll" : 1,
		"enablevscroll" : 1,
		"devicewidth" : 0.0,
		"description" : "",
		"digest" : "",
		"tags" : "",
		"boxes" : [ 			{
				"box" : 				{
					"color" : [ 0.0, 0.25098, 0.501961, 1.0 ],
					"fontname" : "Arial",
					"fontsize" : 12.0,
					"id" : "obj-96",
					"maxclass" : "newobj",
					"numinlets" : 1,
					"numoutlets" : 1,
					"outlettype" : [ "signal" ],
					"patching_rect" : [ 933.333313, 1039.0, 113.0, 20.0 ],
					"text" : "receive~ Player5-R"
				}

			}
, 			{
				"box" : 				{
					"color" : [ 0.0, 0.25098, 0.501961, 1.0 ],
					"fontname" : "Arial",
					"fontsize" : 12.0,
					"id" : "obj-99",
					"maxclass" : "newobj",
					"numinlets" : 1,
					"numoutlets" : 1,
					"outlettype" : [ "signal" ],
					"patching_rect" : [ 419.0, 1049.620483, 111.0, 20.0 ],
					"text" : "receive~ Player5-L"
				}

			}
, 			{
				"box" : 				{
					"color" : [ 1.0, 0.0, 0.501961, 1.0 ],
					"fontname" : "Arial",
					"fontsize" : 12.0,
					"id" : "obj-98",
					"maxclass" : "newobj",
					"numinlets" : 1,
					"numoutlets" : 0,
					"patching_rect" : [ 874.0, 665.75, 57.0, 20.0 ],
					"text" : "s Master"
				}

			}
, 			{
				"box" : 				{
					"color" : [ 1.0, 0.0, 0.501961, 1.0 ],
					"fontname" : "Arial",
					"fontsize" : 12.0,
					"id" : "obj-97",
					"maxclass" : "newobj",
					"numinlets" : 1,
					"numoutlets" : 0,
					"patching_rect" : [ 197.0, 69.5, 51.0, 20.0 ],
					"text" : "s Stop!!"
				}

			}
, 			{
				"box" : 				{
					"fontname" : "Arial",
					"fontsize" : 12.0,
					"id" : "obj-92",
					"maxclass" : "newobj",
					"numinlets" : 1,
					"numoutlets" : 1,
					"outlettype" : [ "" ],
					"patching_rect" : [ 685.791687, 554.620483, 31.0, 20.0 ],
					"text" : "thru"
				}

			}
, 			{
				"box" : 				{
					"fontname" : "Arial",
					"fontsize" : 12.0,
					"id" : "obj-93",
					"maxclass" : "newobj",
					"numinlets" : 2,
					"numoutlets" : 2,
					"outlettype" : [ "", "" ],
					"patching_rect" : [ 656.5, 590.0, 70.0, 20.0 ],
					"text" : "route slider"
				}

			}
, 			{
				"box" : 				{
					"fontname" : "Arial",
					"fontsize" : 12.0,
					"id" : "obj-94",
					"maxclass" : "newobj",
					"numinlets" : 2,
					"numoutlets" : 2,
					"outlettype" : [ "", "" ],
					"patching_rect" : [ 626.5, 623.0, 58.0, 20.0 ],
					"text" : "route pot"
				}

			}
, 			{
				"box" : 				{
					"bgmode" : 1,
					"id" : "obj-95",
					"maxclass" : "bpatcher",
					"name" : "OMax.SVP-Control.maxpat",
					"numinlets" : 2,
					"numoutlets" : 2,
					"outlettype" : [ "float", "float" ],
					"patching_rect" : [ 626.5, 661.5, 83.0, 46.0 ],
					"presentation" : 1,
					"presentation_rect" : [ 519.473877, 411.0, 82.0, 46.0 ]
				}

			}
, 			{
				"box" : 				{
					"fontname" : "Arial",
					"fontsize" : 12.0,
					"id" : "obj-91",
					"maxclass" : "newobj",
					"numinlets" : 1,
					"numoutlets" : 1,
					"outlettype" : [ "" ],
					"patching_rect" : [ 1283.5, 299.0, 31.0, 20.0 ],
					"text" : "thru"
				}

			}
, 			{
				"box" : 				{
					"fontname" : "Arial",
					"fontsize" : 12.0,
					"id" : "obj-90",
					"maxclass" : "newobj",
					"numinlets" : 2,
					"numoutlets" : 2,
					"outlettype" : [ "", "" ],
					"patching_rect" : [ 1298.5, 331.5, 70.0, 20.0 ],
					"text" : "route slider"
				}

			}
, 			{
				"box" : 				{
					"fontname" : "Arial",
					"fontsize" : 12.0,
					"id" : "obj-89",
					"maxclass" : "newobj",
					"numinlets" : 2,
					"numoutlets" : 2,
					"outlettype" : [ "", "" ],
					"patching_rect" : [ 1268.5, 364.5, 58.0, 20.0 ],
					"text" : "route pot"
				}

			}
, 			{
				"box" : 				{
					"bgmode" : 1,
					"id" : "obj-88",
					"maxclass" : "bpatcher",
					"name" : "OMax.SVP-Control.maxpat",
					"numinlets" : 2,
					"numoutlets" : 2,
					"outlettype" : [ "float", "float" ],
					"patching_rect" : [ 1268.5, 403.0, 83.0, 46.0 ],
					"presentation" : 1,
					"presentation_rect" : [ 869.0, 364.0, 82.0, 46.0 ]
				}

			}
, 			{
				"box" : 				{
					"args" : [ 1, 2 ],
					"id" : "obj-87",
					"maxclass" : "bpatcher",
					"name" : "OMax.AudioOut-Stereo.maxpat",
					"numinlets" : 7,
					"numoutlets" : 2,
					"outlettype" : [ "signal", "signal" ],
					"patching_rect" : [ 1182.5, 858.0, 84.0, 104.0 ],
					"presentation" : 1,
					"presentation_rect" : [ 952.0, 352.0, 84.0, 104.0 ]
				}

			}
, 			{
				"box" : 				{
					"args" : [ "Player4" ],
					"id" : "obj-43",
					"maxclass" : "bpatcher",
					"name" : "OMax.Impro-Simple.maxpat",
					"numinlets" : 2,
					"numoutlets" : 2,
					"outlettype" : [ "int", "" ],
					"patching_rect" : [ 1089.5, 236.5, 167.0, 210.0 ],
					"presentation" : 1,
					"presentation_rect" : [ 869.0, 96.0, 167.0, 210.0 ]
				}

			}
, 			{
				"box" : 				{
					"arrowbgcolor" : [ 0.858824, 0.858824, 0.858824, 0.0 ],
					"arrowcolor" : [ 0.0, 0.0, 0.0, 1.0 ],
					"arrowframe" : 0,
					"arrowlink" : 0,
					"bgcolor" : [ 1.0, 1.0, 1.0, 0.0 ],
					"fontname" : "Arial Gras",
					"fontsize" : 18.0,
					"framecolor" : [ 0.0, 1.0, 0.0, 0.0 ],
					"id" : "obj-67",
					"items" : "Dual1",
					"maxclass" : "umenu",
					"numinlets" : 1,
					"numoutlets" : 3,
					"outlettype" : [ "int", "", "" ],
					"parameter_enable" : 0,
					"patching_rect" : [ 1229.0, 183.5, 98.0, 28.0 ],
					"presentation" : 1,
					"presentation_rect" : [ 895.0, 23.0, 126.0, 28.0 ]
				}

			}
, 			{
				"box" : 				{
					"id" : "obj-68",
					"maxclass" : "toggle",
					"numinlets" : 1,
					"numoutlets" : 1,
					"outlettype" : [ "int" ],
					"parameter_enable" : 0,
					"patching_rect" : [ 1066.5, 183.5, 30.0, 30.0 ],
					"presentation" : 1,
					"presentation_rect" : [ 891.75, 60.0, 30.0, 30.0 ]
				}

			}
, 			{
				"box" : 				{
					"fontname" : "Arial",
					"fontsize" : 18.0,
					"frgb" : 0.0,
					"id" : "obj-69",
					"maxclass" : "comment",
					"numinlets" : 1,
					"numoutlets" : 0,
					"patching_rect" : [ 1100.75, 183.5, 93.75, 27.0 ],
					"presentation" : 1,
					"presentation_rect" : [ 926.0, 60.0, 96.0, 27.0 ],
					"text" : "Start/Stop"
				}

			}
, 			{
				"box" : 				{
					"fontname" : "Arial",
					"fontsize" : 12.0,
					"id" : "obj-71",
					"maxclass" : "newobj",
					"numinlets" : 1,
					"numoutlets" : 1,
					"outlettype" : [ "int" ],
					"patching_rect" : [ 1237.5, 557.0, 24.0, 20.0 ],
					"text" : "t 1"
				}

			}
, 			{
				"box" : 				{
					"args" : [ "Player4" ],
					"bgmode" : 1,
					"id" : "obj-72",
					"maxclass" : "bpatcher",
					"name" : "OMax.SVP-Player.st.maxpat",
					"numinlets" : 6,
					"numoutlets" : 3,
					"outlettype" : [ "signal", "signal", "bang" ],
					"patching_rect" : [ 1066.5, 477.379517, 190.0, 70.0 ],
					"presentation" : 1,
					"presentation_rect" : [ 869.0, 410.0, 82.0, 46.0 ]
				}

			}
, 			{
				"box" : 				{
					"fontname" : "Arial",
					"fontsize" : 12.0,
					"id" : "obj-78",
					"maxclass" : "newobj",
					"numinlets" : 1,
					"numoutlets" : 1,
					"outlettype" : [ "" ],
					"patching_rect" : [ 1268.5, 268.0, 100.0, 20.0 ],
					"text" : "sprintf %s_Buffer"
				}

			}
, 			{
				"box" : 				{
					"args" : [ "Player3" ],
					"id" : "obj-3",
					"maxclass" : "bpatcher",
					"name" : "OMax.Impro-Simple.maxpat",
					"numinlets" : 2,
					"numoutlets" : 2,
					"outlettype" : [ "int", "" ],
					"patching_rect" : [ 765.0, 236.5, 167.0, 210.0 ],
					"presentation" : 1,
					"presentation_rect" : [ 696.0, 96.0, 167.0, 210.0 ]
				}

			}
, 			{
				"box" : 				{
					"arrowbgcolor" : [ 0.858824, 0.858824, 0.858824, 0.0 ],
					"arrowcolor" : [ 0.0, 0.0, 0.0, 1.0 ],
					"arrowframe" : 0,
					"arrowlink" : 0,
					"bgcolor" : [ 1.0, 1.0, 1.0, 0.0 ],
					"fontname" : "Arial Gras",
					"fontsize" : 18.0,
					"framecolor" : [ 0.0, 1.0, 0.0, 0.0 ],
					"id" : "obj-63",
					"items" : "Dual1",
					"maxclass" : "umenu",
					"numinlets" : 1,
					"numoutlets" : 3,
					"outlettype" : [ "int", "", "" ],
					"parameter_enable" : 0,
					"patching_rect" : [ 904.5, 183.5, 98.0, 28.0 ],
					"presentation" : 1,
					"presentation_rect" : [ 712.0, 23.0, 126.0, 28.0 ]
				}

			}
, 			{
				"box" : 				{
					"id" : "obj-64",
					"maxclass" : "toggle",
					"numinlets" : 1,
					"numoutlets" : 1,
					"outlettype" : [ "int" ],
					"parameter_enable" : 0,
					"patching_rect" : [ 742.0, 183.5, 30.0, 30.0 ],
					"presentation" : 1,
					"presentation_rect" : [ 712.0, 59.0, 30.0, 30.0 ]
				}

			}
, 			{
				"box" : 				{
					"fontname" : "Arial",
					"fontsize" : 18.0,
					"frgb" : 0.0,
					"id" : "obj-66",
					"maxclass" : "comment",
					"numinlets" : 1,
					"numoutlets" : 0,
					"patching_rect" : [ 776.25, 183.5, 93.75, 27.0 ],
					"presentation" : 1,
					"presentation_rect" : [ 742.0, 61.0, 96.0, 27.0 ],
					"text" : "Start/Stop"
				}

			}
, 			{
				"box" : 				{
					"fontname" : "Arial",
					"fontsize" : 12.0,
					"id" : "obj-59",
					"maxclass" : "newobj",
					"numinlets" : 1,
					"numoutlets" : 1,
					"outlettype" : [ "int" ],
					"patching_rect" : [ 907.0, 541.0, 24.0, 20.0 ],
					"text" : "t 1"
				}

			}
, 			{
				"box" : 				{
					"args" : [ "Player3" ],
					"bgmode" : 1,
					"id" : "obj-60",
					"maxclass" : "bpatcher",
					"name" : "OMax.Player.st.maxpat",
					"numinlets" : 4,
					"numoutlets" : 3,
					"outlettype" : [ "signal", "signal", "bang" ],
					"patching_rect" : [ 742.0, 462.5, 184.0, 68.5 ],
					"presentation" : 1,
					"presentation_rect" : [ 696.0, 410.0, 83.0, 46.0 ]
				}

			}
, 			{
				"box" : 				{
					"fontname" : "Arial",
					"fontsize" : 12.0,
					"id" : "obj-61",
					"maxclass" : "newobj",
					"numinlets" : 1,
					"numoutlets" : 1,
					"outlettype" : [ "" ],
					"patching_rect" : [ 944.0, 420.0, 100.0, 20.0 ],
					"text" : "sprintf %s_Buffer"
				}

			}
, 			{
				"box" : 				{
					"arrowbgcolor" : [ 0.858824, 0.858824, 0.858824, 0.0 ],
					"arrowcolor" : [ 0.0, 0.0, 0.0, 1.0 ],
					"arrowframe" : 0,
					"arrowlink" : 0,
					"bgcolor" : [ 1.0, 1.0, 1.0, 0.0 ],
					"fontname" : "Arial Gras",
					"fontsize" : 18.0,
					"framecolor" : [ 0.0, 1.0, 0.0, 0.0 ],
					"id" : "obj-56",
					"items" : "Dual1",
					"maxclass" : "umenu",
					"numinlets" : 1,
					"numoutlets" : 3,
					"outlettype" : [ "int", "", "" ],
					"parameter_enable" : 0,
					"patching_rect" : [ 561.5, 183.5, 98.0, 28.0 ],
					"presentation" : 1,
					"presentation_rect" : [ 527.0, 59.0, 126.0, 28.0 ]
				}

			}
, 			{
				"box" : 				{
					"id" : "obj-57",
					"maxclass" : "toggle",
					"numinlets" : 1,
					"numoutlets" : 1,
					"outlettype" : [ "int" ],
					"parameter_enable" : 0,
					"patching_rect" : [ 419.0, 183.5, 30.0, 30.0 ],
					"presentation" : 1,
					"presentation_rect" : [ 370.0, 59.0, 30.0, 30.0 ]
				}

			}
, 			{
				"box" : 				{
					"fontname" : "Arial",
					"fontsize" : 18.0,
					"frgb" : 0.0,
					"id" : "obj-58",
					"maxclass" : "comment",
					"numinlets" : 1,
					"numoutlets" : 0,
					"patching_rect" : [ 453.25, 183.5, 93.75, 27.0 ],
					"presentation" : 1,
					"presentation_rect" : [ 400.0, 61.0, 96.0, 27.0 ],
					"text" : "Start/Stop"
				}

			}
, 			{
				"box" : 				{
					"fontname" : "Arial",
					"fontsize" : 12.0,
					"id" : "obj-53",
					"maxclass" : "newobj",
					"numinlets" : 1,
					"numoutlets" : 1,
					"outlettype" : [ "int" ],
					"patching_rect" : [ 590.0, 717.0, 24.0, 20.0 ],
					"text" : "t 1"
				}

			}
, 			{
				"box" : 				{
					"args" : [ "Player2" ],
					"bgmode" : 1,
					"id" : "obj-54",
					"maxclass" : "bpatcher",
					"name" : "OMax.SVP-Player.st.maxpat",
					"numinlets" : 6,
					"numoutlets" : 3,
					"outlettype" : [ "signal", "signal", "bang" ],
					"patching_rect" : [ 419.0, 641.5, 190.0, 68.5 ],
					"presentation" : 1,
					"presentation_rect" : [ 436.473877, 411.0, 83.0, 46.0 ]
				}

			}
, 			{
				"box" : 				{
					"fontname" : "Arial",
					"fontsize" : 12.0,
					"id" : "obj-55",
					"maxclass" : "newobj",
					"numinlets" : 1,
					"numoutlets" : 1,
					"outlettype" : [ "" ],
					"patching_rect" : [ 521.599976, 611.0, 100.0, 20.0 ],
					"text" : "sprintf %s_Buffer"
				}

			}
, 			{
				"box" : 				{
					"fontname" : "Arial",
					"fontsize" : 12.0,
					"id" : "obj-51",
					"maxclass" : "newobj",
					"numinlets" : 1,
					"numoutlets" : 1,
					"outlettype" : [ "int" ],
					"patching_rect" : [ 262.333344, 717.0, 24.0, 20.0 ],
					"text" : "t 1"
				}

			}
, 			{
				"box" : 				{
					"fontname" : "Arial",
					"fontsize" : 12.0,
					"id" : "obj-48",
					"maxclass" : "newobj",
					"numinlets" : 1,
					"numoutlets" : 1,
					"outlettype" : [ "" ],
					"patching_rect" : [ 1416.0, 18.5, 31.0, 20.0 ],
					"text" : "thru"
				}

			}
, 			{
				"box" : 				{
					"args" : [ "Player1" ],
					"bgmode" : 1,
					"id" : "obj-45",
					"maxclass" : "bpatcher",
					"name" : "OMax.Player.st.maxpat",
					"numinlets" : 4,
					"numoutlets" : 3,
					"outlettype" : [ "signal", "signal", "bang" ],
					"patching_rect" : [ 93.0, 641.5, 188.333344, 68.5 ],
					"presentation" : 1,
					"presentation_rect" : [ 91.473877, 410.0, 83.0, 46.0 ]
				}

			}
, 			{
				"box" : 				{
					"fontname" : "Arial",
					"fontsize" : 12.0,
					"id" : "obj-65",
					"maxclass" : "newobj",
					"numinlets" : 1,
					"numoutlets" : 1,
					"outlettype" : [ "" ],
					"patching_rect" : [ 299.5, 611.0, 100.0, 20.0 ],
					"text" : "sprintf %s_Buffer"
				}

			}
, 			{
				"box" : 				{
					"fontname" : "Arial",
					"fontsize" : 12.0,
					"id" : "obj-34",
					"maxclass" : "newobj",
					"numinlets" : 1,
					"numoutlets" : 1,
					"outlettype" : [ "bang" ],
					"patching_rect" : [ 1499.0, 56.759033, 60.0, 20.0 ],
					"text" : "loadbang"
				}

			}
, 			{
				"box" : 				{
					"fontname" : "Arial",
					"fontsize" : 12.0,
					"id" : "obj-36",
					"maxclass" : "newobj",
					"numinlets" : 0,
					"numoutlets" : 1,
					"outlettype" : [ "" ],
					"patching_rect" : [ 1480.0, 30.759033, 85.0, 20.0 ],
					"text" : "r OMax.inputs"
				}

			}
, 			{
				"box" : 				{
					"fontname" : "Arial",
					"fontsize" : 12.0,
					"id" : "obj-40",
					"maxclass" : "newobj",
					"numinlets" : 2,
					"numoutlets" : 2,
					"outlettype" : [ "", "" ],
					"patching_rect" : [ 1480.0, 179.759033, 79.0, 20.0 ],
					"text" : "route symbol"
				}

			}
, 			{
				"box" : 				{
					"arrowbgcolor" : [ 0.858824, 0.858824, 0.858824, 0.0 ],
					"arrowcolor" : [ 0.0, 0.0, 0.0, 1.0 ],
					"arrowframe" : 0,
					"arrowlink" : 0,
					"bgcolor" : [ 1.0, 1.0, 1.0, 0.0 ],
					"fontname" : "Arial Gras",
					"fontsize" : 18.0,
					"framecolor" : [ 0.0, 1.0, 0.0, 0.0 ],
					"id" : "obj-37",
					"items" : "Dual1",
					"maxclass" : "umenu",
					"numinlets" : 1,
					"numoutlets" : 3,
					"outlettype" : [ "int", "", "" ],
					"parameter_enable" : 0,
					"patching_rect" : [ 260.0, 183.5, 98.0, 28.0 ],
					"presentation" : 1,
					"presentation_rect" : [ 196.0, 59.0, 126.0, 28.0 ]
				}

			}
, 			{
				"box" : 				{
					"fontname" : "Arial",
					"fontsize" : 12.0,
					"id" : "obj-38",
					"maxclass" : "newobj",
					"numinlets" : 1,
					"numoutlets" : 2,
					"outlettype" : [ "bang", "bang" ],
					"patching_rect" : [ 1480.0, 89.759033, 34.0, 20.0 ],
					"text" : "t b b"
				}

			}
, 			{
				"box" : 				{
					"fontname" : "Arial",
					"fontsize" : 12.0,
					"id" : "obj-46",
					"maxclass" : "message",
					"numinlets" : 2,
					"numoutlets" : 1,
					"outlettype" : [ "" ],
					"patching_rect" : [ 1525.0, 117.759033, 37.0, 18.0 ],
					"text" : "clear"
				}

			}
, 			{
				"box" : 				{
					"fontname" : "Arial",
					"fontsize" : 12.0,
					"id" : "obj-47",
					"maxclass" : "newobj",
					"numinlets" : 1,
					"numoutlets" : 1,
					"outlettype" : [ "" ],
					"patching_rect" : [ 1480.0, 208.759033, 98.0, 20.0 ],
					"text" : "prepend append"
				}

			}
, 			{
				"box" : 				{
					"fontname" : "Arial",
					"fontsize" : 12.0,
					"id" : "obj-49",
					"maxclass" : "message",
					"numinlets" : 2,
					"numoutlets" : 1,
					"outlettype" : [ "" ],
					"patching_rect" : [ 1480.0, 117.759033, 41.0, 18.0 ],
					"text" : "dump"
				}

			}
, 			{
				"box" : 				{
					"fontname" : "Arial",
					"fontsize" : 12.0,
					"id" : "obj-52",
					"maxclass" : "newobj",
					"numinlets" : 1,
					"numoutlets" : 4,
					"outlettype" : [ "", "", "", "" ],
					"patching_rect" : [ 1480.0, 142.759033, 65.0, 20.0 ],
					"saved_object_attributes" : 					{
						"embed" : 0
					}
,
					"text" : "coll Inputs"
				}

			}
, 			{
				"box" : 				{
					"id" : "obj-39",
					"maxclass" : "toggle",
					"numinlets" : 1,
					"numoutlets" : 1,
					"outlettype" : [ "int" ],
					"parameter_enable" : 0,
					"patching_rect" : [ 97.0, 183.5, 30.0, 30.0 ],
					"presentation" : 1,
					"presentation_rect" : [ 24.25, 59.0, 30.0, 30.0 ]
				}

			}
, 			{
				"box" : 				{
					"fontname" : "Arial",
					"fontsize" : 18.0,
					"frgb" : 0.0,
					"id" : "obj-41",
					"maxclass" : "comment",
					"numinlets" : 1,
					"numoutlets" : 0,
					"patching_rect" : [ 131.25, 183.5, 93.75, 27.0 ],
					"presentation" : 1,
					"presentation_rect" : [ 53.0, 61.0, 96.0, 27.0 ],
					"text" : "Start/Stop"
				}

			}
, 			{
				"box" : 				{
					"args" : [ "test", 1 ],
					"id" : "obj-32",
					"maxclass" : "bpatcher",
					"name" : "OMax.Region-Follow.maxpat",
					"numinlets" : 0,
					"numoutlets" : 0,
					"patching_rect" : [ 1383.0, 357.0, 260.0, 49.0 ],
					"presentation" : 1,
					"presentation_rect" : [ 1049.0, 59.0, 165.0, 47.0 ]
				}

			}
, 			{
				"box" : 				{
					"bgcolor" : [ 0.913725, 0.913725, 0.913725, 0.0 ],
					"id" : "obj-75",
					"maxclass" : "button",
					"numinlets" : 1,
					"numoutlets" : 1,
					"outlettype" : [ "bang" ],
					"patching_rect" : [ 974.833313, 649.5, 20.0, 20.0 ],
					"presentation" : 1,
					"presentation_rect" : [ 1121.5, 253.0, 20.0, 20.0 ]
				}

			}
, 			{
				"box" : 				{
					"bgcolor" : [ 1.0, 1.0, 1.0, 0.0 ],
					"bordercolor" : [ 0.501961, 0.501961, 0.501961, 0.0 ],
					"id" : "obj-76",
					"maxclass" : "slider",
					"numinlets" : 1,
					"numoutlets" : 1,
					"outlettype" : [ "" ],
					"parameter_enable" : 0,
					"patching_rect" : [ 974.833313, 703.5, 120.0, 20.0 ],
					"presentation" : 1,
					"presentation_rect" : [ 1104.236938, 273.0, 54.526123, 166.0 ],
					"size" : 157.0
				}

			}
, 			{
				"box" : 				{
					"fontname" : "Arial",
					"fontsize" : 12.0,
					"hidden" : 1,
					"id" : "obj-77",
					"maxclass" : "newobj",
					"numinlets" : 1,
					"numoutlets" : 1,
					"outlettype" : [ "" ],
					"patching_rect" : [ 974.833313, 674.5, 85.0, 20.0 ],
					"text" : "loadmess 127"
				}

			}
, 			{
				"box" : 				{
					"bgcolor" : [ 0.0, 0.0, 1.0, 0.101961 ],
					"bordercolor" : [ 1.0, 1.0, 1.0, 0.0 ],
					"id" : "obj-50",
					"interval" : 100,
					"maxclass" : "meter~",
					"numinlets" : 1,
					"numoutlets" : 1,
					"outlettype" : [ "float" ],
					"patching_rect" : [ 854.5, 1020.0, 26.0, 100.0 ],
					"presentation" : 1,
					"presentation_rect" : [ 1130.763062, 273.0, 28.0, 166.0 ],
					"prototypename" : "BenCello01"
				}

			}
, 			{
				"box" : 				{
					"bgcolor" : [ 0.0, 0.0, 1.0, 0.101961 ],
					"bordercolor" : [ 1.0, 1.0, 1.0, 0.0 ],
					"id" : "obj-168",
					"interval" : 100,
					"maxclass" : "meter~",
					"numinlets" : 1,
					"numoutlets" : 1,
					"outlettype" : [ "float" ],
					"patching_rect" : [ 550.5, 1027.0, 25.0, 100.0 ],
					"presentation" : 1,
					"presentation_rect" : [ 1104.236938, 273.0, 28.0, 166.0 ],
					"prototypename" : "BenCello01"
				}

			}
, 			{
				"box" : 				{
					"bgcolor" : [ 0.509804, 0.509804, 0.509804, 0.0 ],
					"id" : "obj-11",
					"maxclass" : "ezdac~",
					"numinlets" : 2,
					"numoutlets" : 0,
					"ongradcolor2" : [ 0.0, 0.941176, 0.784672, 1.0 ],
					"patching_rect" : [ 32.5, 878.0, 45.0, 45.0 ],
					"presentation" : 1,
					"presentation_rect" : [ 5.973877, 5.0, 40.0, 40.0 ]
				}

			}
, 			{
				"box" : 				{
					"id" : "obj-35",
					"maxclass" : "bpatcher",
					"name" : "OMax.Region-Extend.maxpat",
					"numinlets" : 0,
					"numoutlets" : 0,
					"patching_rect" : [ 1383.0, 420.0, 260.0, 49.0 ],
					"presentation" : 1,
					"presentation_rect" : [ 1049.0, 125.0, 165.0, 47.0 ]
				}

			}
, 			{
				"box" : 				{
					"args" : [ "test", 1 ],
					"id" : "obj-33",
					"maxclass" : "bpatcher",
					"name" : "OMax.Region-Follow.maxpat",
					"numinlets" : 0,
					"numoutlets" : 0,
					"patching_rect" : [ 1383.0, 299.0, 260.0, 49.0 ],
					"presentation" : 1,
					"presentation_rect" : [ 1049.0, 12.0, 165.0, 47.0 ]
				}

			}
, 			{
				"box" : 				{
					"id" : "obj-42",
					"maxclass" : "bpatcher",
					"name" : "OMax.Region-Extend.maxpat",
					"numinlets" : 0,
					"numoutlets" : 0,
					"patching_rect" : [ 1383.0, 477.379517, 260.0, 49.0 ],
					"presentation" : 1,
					"presentation_rect" : [ 1049.0, 172.0, 165.0, 47.0 ]
				}

			}
, 			{
				"box" : 				{
					"fontname" : "Arial Bold",
					"fontsize" : 10.0,
					"frgb" : 0.0,
					"id" : "obj-73",
					"maxclass" : "comment",
					"numinlets" : 1,
					"numoutlets" : 0,
					"patching_rect" : [ 50.0, 103.5, 38.0, 18.0 ],
					"presentation" : 1,
					"presentation_rect" : [ 53.0, 17.0, 37.0, 18.0 ],
					"text" : "Stop!"
				}

			}
, 			{
				"box" : 				{
					"bgcolor" : [ 0.913725, 0.913725, 0.913725, 0.0 ],
					"blinkcolor" : [ 1.0, 1.0, 0.0, 1.0 ],
					"fgcolor" : [ 1.0, 0.0, 0.0, 1.0 ],
					"id" : "obj-74",
					"maxclass" : "button",
					"numinlets" : 1,
					"numoutlets" : 1,
					"outlettype" : [ "bang" ],
					"patching_rect" : [ 23.0, 102.5, 20.0, 20.0 ],
					"presentation" : 1,
					"presentation_rect" : [ 48.973877, 6.0, 40.0, 40.0 ]
				}

			}
, 			{
				"box" : 				{
					"fontname" : "Arial",
					"fontsize" : 12.0,
					"id" : "obj-29",
					"maxclass" : "newobj",
					"numinlets" : 1,
					"numoutlets" : 2,
					"outlettype" : [ "int", "int" ],
					"patching_rect" : [ 23.0, 130.5, 34.0, 20.0 ],
					"text" : "t 0 0"
				}

			}
, 			{
				"box" : 				{
					"args" : [ 1, 2 ],
					"id" : "obj-6",
					"maxclass" : "bpatcher",
					"name" : "OMax.AudioOut-Stereo.maxpat",
					"numinlets" : 7,
					"numoutlets" : 2,
					"outlettype" : [ "signal", "signal" ],
					"patching_rect" : [ 854.5, 858.0, 84.0, 104.0 ],
					"presentation" : 1,
					"presentation_rect" : [ 779.0, 352.0, 84.0, 104.0 ]
				}

			}
, 			{
				"box" : 				{
					"args" : [ 1, 2 ],
					"id" : "obj-5",
					"maxclass" : "bpatcher",
					"name" : "OMax.AudioOut-Stereo.maxpat",
					"numinlets" : 7,
					"numoutlets" : 2,
					"outlettype" : [ "signal", "signal" ],
					"patching_rect" : [ 491.5, 858.0, 84.0, 104.0 ],
					"presentation" : 1,
					"presentation_rect" : [ 601.973877, 353.0, 84.0, 104.0 ]
				}

			}
, 			{
				"box" : 				{
					"args" : [ 1, 2 ],
					"id" : "obj-4",
					"maxclass" : "bpatcher",
					"name" : "OMax.AudioOut-Stereo.maxpat",
					"numinlets" : 7,
					"numoutlets" : 2,
					"outlettype" : [ "signal", "signal" ],
					"patching_rect" : [ 139.666672, 858.0, 84.0, 104.0 ],
					"presentation" : 1,
					"presentation_rect" : [ 256.973877, 353.0, 84.0, 104.0 ]
				}

			}
, 			{
				"box" : 				{
					"args" : [ "Player2" ],
					"id" : "obj-2",
					"maxclass" : "bpatcher",
					"name" : "OMax.Impro-Dual.maxpat",
					"numinlets" : 2,
					"numoutlets" : 2,
					"outlettype" : [ "int", "" ],
					"patching_rect" : [ 384.0, 251.0, 335.0, 350.0 ],
					"presentation" : 1,
					"presentation_rect" : [ 350.973877, 96.0, 335.0, 350.0 ]
				}

			}
, 			{
				"box" : 				{
					"args" : [ "Player1" ],
					"id" : "obj-1",
					"maxclass" : "bpatcher",
					"name" : "OMax.Impro-Dual.maxpat",
					"numinlets" : 2,
					"numoutlets" : 2,
					"outlettype" : [ "int", "" ],
					"patching_rect" : [ 23.0, 251.0, 335.0, 350.0 ],
					"presentation" : 1,
					"presentation_rect" : [ 5.973877, 96.0, 335.0, 350.0 ]
				}

			}
 ],
		"lines" : [ 			{
				"patchline" : 				{
					"destination" : [ "obj-45", 2 ],
					"disabled" : 0,
					"hidden" : 0,
					"source" : [ "obj-1", 1 ]
				}

			}
, 			{
				"patchline" : 				{
					"destination" : [ "obj-45", 1 ],
					"disabled" : 0,
					"hidden" : 0,
					"source" : [ "obj-1", 0 ]
				}

			}
, 			{
				"patchline" : 				{
					"destination" : [ "obj-54", 2 ],
					"disabled" : 0,
					"hidden" : 0,
					"source" : [ "obj-2", 1 ]
				}

			}
, 			{
				"patchline" : 				{
					"destination" : [ "obj-54", 1 ],
					"disabled" : 0,
					"hidden" : 0,
					"source" : [ "obj-2", 0 ]
				}

			}
, 			{
				"patchline" : 				{
					"destination" : [ "obj-39", 0 ],
					"disabled" : 0,
					"hidden" : 0,
					"source" : [ "obj-29", 1 ]
				}

			}
, 			{
				"patchline" : 				{
					"destination" : [ "obj-39", 0 ],
					"disabled" : 0,
					"hidden" : 0,
					"source" : [ "obj-29", 0 ]
				}

			}
, 			{
				"patchline" : 				{
					"destination" : [ "obj-57", 0 ],
					"disabled" : 0,
					"hidden" : 0,
					"source" : [ "obj-29", 1 ]
				}

			}
, 			{
				"patchline" : 				{
					"destination" : [ "obj-57", 0 ],
					"disabled" : 0,
					"hidden" : 0,
					"source" : [ "obj-29", 0 ]
				}

			}
, 			{
				"patchline" : 				{
					"destination" : [ "obj-64", 0 ],
					"disabled" : 0,
					"hidden" : 0,
					"source" : [ "obj-29", 1 ]
				}

			}
, 			{
				"patchline" : 				{
					"destination" : [ "obj-64", 0 ],
					"disabled" : 0,
					"hidden" : 0,
					"source" : [ "obj-29", 0 ]
				}

			}
, 			{
				"patchline" : 				{
					"destination" : [ "obj-68", 0 ],
					"disabled" : 0,
					"hidden" : 0,
					"source" : [ "obj-29", 1 ]
				}

			}
, 			{
				"patchline" : 				{
					"destination" : [ "obj-68", 0 ],
					"disabled" : 0,
					"hidden" : 0,
					"source" : [ "obj-29", 0 ]
				}

			}
, 			{
				"patchline" : 				{
					"destination" : [ "obj-60", 2 ],
					"disabled" : 0,
					"hidden" : 0,
					"source" : [ "obj-3", 1 ]
				}

			}
, 			{
				"patchline" : 				{
					"destination" : [ "obj-60", 1 ],
					"disabled" : 0,
					"hidden" : 0,
					"source" : [ "obj-3", 0 ]
				}

			}
, 			{
				"patchline" : 				{
					"destination" : [ "obj-38", 0 ],
					"disabled" : 0,
					"hidden" : 0,
					"source" : [ "obj-34", 0 ]
				}

			}
, 			{
				"patchline" : 				{
					"destination" : [ "obj-38", 0 ],
					"disabled" : 0,
					"hidden" : 0,
					"source" : [ "obj-36", 0 ]
				}

			}
, 			{
				"patchline" : 				{
					"destination" : [ "obj-1", 1 ],
					"disabled" : 0,
					"hidden" : 0,
					"source" : [ "obj-37", 1 ]
				}

			}
, 			{
				"patchline" : 				{
					"destination" : [ "obj-65", 0 ],
					"disabled" : 0,
					"hidden" : 0,
					"source" : [ "obj-37", 1 ]
				}

			}
, 			{
				"patchline" : 				{
					"destination" : [ "obj-46", 0 ],
					"disabled" : 0,
					"hidden" : 0,
					"source" : [ "obj-38", 1 ]
				}

			}
, 			{
				"patchline" : 				{
					"destination" : [ "obj-49", 0 ],
					"disabled" : 0,
					"hidden" : 0,
					"source" : [ "obj-38", 0 ]
				}

			}
, 			{
				"patchline" : 				{
					"destination" : [ "obj-1", 0 ],
					"disabled" : 0,
					"hidden" : 0,
					"source" : [ "obj-39", 0 ]
				}

			}
, 			{
				"patchline" : 				{
					"destination" : [ "obj-45", 0 ],
					"disabled" : 0,
					"hidden" : 0,
					"source" : [ "obj-39", 0 ]
				}

			}
, 			{
				"patchline" : 				{
					"destination" : [ "obj-168", 0 ],
					"disabled" : 0,
					"hidden" : 0,
					"source" : [ "obj-4", 0 ]
				}

			}
, 			{
				"patchline" : 				{
					"destination" : [ "obj-50", 0 ],
					"disabled" : 0,
					"hidden" : 0,
					"source" : [ "obj-4", 1 ]
				}

			}
, 			{
				"patchline" : 				{
					"destination" : [ "obj-47", 0 ],
					"disabled" : 0,
					"hidden" : 0,
					"source" : [ "obj-40", 0 ]
				}

			}
, 			{
				"patchline" : 				{
					"destination" : [ "obj-72", 2 ],
					"disabled" : 0,
					"hidden" : 0,
					"source" : [ "obj-43", 1 ]
				}

			}
, 			{
				"patchline" : 				{
					"destination" : [ "obj-72", 1 ],
					"disabled" : 0,
					"hidden" : 0,
					"source" : [ "obj-43", 0 ]
				}

			}
, 			{
				"patchline" : 				{
					"destination" : [ "obj-4", 3 ],
					"disabled" : 0,
					"hidden" : 0,
					"source" : [ "obj-45", 1 ]
				}

			}
, 			{
				"patchline" : 				{
					"destination" : [ "obj-4", 1 ],
					"disabled" : 0,
					"hidden" : 0,
					"source" : [ "obj-45", 0 ]
				}

			}
, 			{
				"patchline" : 				{
					"destination" : [ "obj-51", 0 ],
					"disabled" : 0,
					"hidden" : 0,
					"source" : [ "obj-45", 2 ]
				}

			}
, 			{
				"patchline" : 				{
					"destination" : [ "obj-48", 0 ],
					"disabled" : 0,
					"hidden" : 0,
					"source" : [ "obj-46", 0 ]
				}

			}
, 			{
				"patchline" : 				{
					"destination" : [ "obj-48", 0 ],
					"disabled" : 0,
					"hidden" : 0,
					"source" : [ "obj-47", 0 ]
				}

			}
, 			{
				"patchline" : 				{
					"color" : [ 0.8, 0.4, 1.0, 0.5 ],
					"destination" : [ "obj-37", 0 ],
					"disabled" : 0,
					"hidden" : 0,
					"source" : [ "obj-48", 0 ]
				}

			}
, 			{
				"patchline" : 				{
					"color" : [ 0.8, 0.4, 1.0, 0.5 ],
					"destination" : [ "obj-56", 0 ],
					"disabled" : 0,
					"hidden" : 0,
					"source" : [ "obj-48", 0 ]
				}

			}
, 			{
				"patchline" : 				{
					"color" : [ 0.8, 0.4, 1.0, 0.5 ],
					"destination" : [ "obj-63", 0 ],
					"disabled" : 0,
					"hidden" : 0,
					"source" : [ "obj-48", 0 ]
				}

			}
, 			{
				"patchline" : 				{
					"color" : [ 0.8, 0.4, 1.0, 0.5 ],
					"destination" : [ "obj-67", 0 ],
					"disabled" : 0,
					"hidden" : 0,
					"source" : [ "obj-48", 0 ]
				}

			}
, 			{
				"patchline" : 				{
					"destination" : [ "obj-52", 0 ],
					"disabled" : 0,
					"hidden" : 0,
					"source" : [ "obj-49", 0 ]
				}

			}
, 			{
				"patchline" : 				{
					"destination" : [ "obj-168", 0 ],
					"disabled" : 0,
					"hidden" : 0,
					"source" : [ "obj-5", 0 ]
				}

			}
, 			{
				"patchline" : 				{
					"destination" : [ "obj-50", 0 ],
					"disabled" : 0,
					"hidden" : 0,
					"source" : [ "obj-5", 1 ]
				}

			}
, 			{
				"patchline" : 				{
					"destination" : [ "obj-1", 0 ],
					"disabled" : 0,
					"hidden" : 0,
					"midpoints" : [ 271.833344, 745.0, 10.5, 745.0, 10.5, 241.0, 32.5, 241.0 ],
					"source" : [ "obj-51", 0 ]
				}

			}
, 			{
				"patchline" : 				{
					"destination" : [ "obj-40", 0 ],
					"disabled" : 0,
					"hidden" : 0,
					"source" : [ "obj-52", 0 ]
				}

			}
, 			{
				"patchline" : 				{
					"destination" : [ "obj-2", 0 ],
					"disabled" : 0,
					"hidden" : 0,
					"midpoints" : [ 599.5, 747.0, 377.0, 747.0, 377.0, 241.0, 393.5, 241.0 ],
					"source" : [ "obj-53", 0 ]
				}

			}
, 			{
				"patchline" : 				{
					"destination" : [ "obj-5", 3 ],
					"disabled" : 0,
					"hidden" : 0,
					"source" : [ "obj-54", 1 ]
				}

			}
, 			{
				"patchline" : 				{
					"destination" : [ "obj-5", 1 ],
					"disabled" : 0,
					"hidden" : 0,
					"source" : [ "obj-54", 0 ]
				}

			}
, 			{
				"patchline" : 				{
					"destination" : [ "obj-53", 0 ],
					"disabled" : 0,
					"hidden" : 0,
					"source" : [ "obj-54", 2 ]
				}

			}
, 			{
				"patchline" : 				{
					"destination" : [ "obj-54", 3 ],
					"disabled" : 0,
					"hidden" : 0,
					"source" : [ "obj-55", 0 ]
				}

			}
, 			{
				"patchline" : 				{
					"destination" : [ "obj-2", 1 ],
					"disabled" : 0,
					"hidden" : 0,
					"source" : [ "obj-56", 1 ]
				}

			}
, 			{
				"patchline" : 				{
					"destination" : [ "obj-55", 0 ],
					"disabled" : 0,
					"hidden" : 0,
					"source" : [ "obj-56", 1 ]
				}

			}
, 			{
				"patchline" : 				{
					"destination" : [ "obj-2", 0 ],
					"disabled" : 0,
					"hidden" : 0,
					"source" : [ "obj-57", 0 ]
				}

			}
, 			{
				"patchline" : 				{
					"destination" : [ "obj-54", 0 ],
					"disabled" : 0,
					"hidden" : 0,
					"source" : [ "obj-57", 0 ]
				}

			}
, 			{
				"patchline" : 				{
					"destination" : [ "obj-3", 0 ],
					"disabled" : 0,
					"hidden" : 0,
					"midpoints" : [ 916.5, 567.0, 1023.0, 567.0, 1023.0, 226.5, 774.5, 226.5 ],
					"source" : [ "obj-59", 0 ]
				}

			}
, 			{
				"patchline" : 				{
					"destination" : [ "obj-168", 0 ],
					"disabled" : 0,
					"hidden" : 0,
					"source" : [ "obj-6", 0 ]
				}

			}
, 			{
				"patchline" : 				{
					"destination" : [ "obj-50", 0 ],
					"disabled" : 0,
					"hidden" : 0,
					"source" : [ "obj-6", 1 ]
				}

			}
, 			{
				"patchline" : 				{
					"destination" : [ "obj-59", 0 ],
					"disabled" : 0,
					"hidden" : 0,
					"source" : [ "obj-60", 2 ]
				}

			}
, 			{
				"patchline" : 				{
					"destination" : [ "obj-6", 3 ],
					"disabled" : 0,
					"hidden" : 0,
					"source" : [ "obj-60", 1 ]
				}

			}
, 			{
				"patchline" : 				{
					"destination" : [ "obj-6", 1 ],
					"disabled" : 0,
					"hidden" : 0,
					"source" : [ "obj-60", 0 ]
				}

			}
, 			{
				"patchline" : 				{
					"destination" : [ "obj-60", 3 ],
					"disabled" : 0,
					"hidden" : 0,
					"source" : [ "obj-61", 0 ]
				}

			}
, 			{
				"patchline" : 				{
					"destination" : [ "obj-3", 1 ],
					"disabled" : 0,
					"hidden" : 0,
					"source" : [ "obj-63", 1 ]
				}

			}
, 			{
				"patchline" : 				{
					"destination" : [ "obj-61", 0 ],
					"disabled" : 0,
					"hidden" : 0,
					"source" : [ "obj-63", 1 ]
				}

			}
, 			{
				"patchline" : 				{
					"destination" : [ "obj-3", 0 ],
					"disabled" : 0,
					"hidden" : 0,
					"source" : [ "obj-64", 0 ]
				}

			}
, 			{
				"patchline" : 				{
					"destination" : [ "obj-60", 0 ],
					"disabled" : 0,
					"hidden" : 0,
					"source" : [ "obj-64", 0 ]
				}

			}
, 			{
				"patchline" : 				{
					"destination" : [ "obj-45", 3 ],
					"disabled" : 0,
					"hidden" : 0,
					"source" : [ "obj-65", 0 ]
				}

			}
, 			{
				"patchline" : 				{
					"destination" : [ "obj-43", 1 ],
					"disabled" : 0,
					"hidden" : 0,
					"source" : [ "obj-67", 1 ]
				}

			}
, 			{
				"patchline" : 				{
					"destination" : [ "obj-78", 0 ],
					"disabled" : 0,
					"hidden" : 0,
					"source" : [ "obj-67", 1 ]
				}

			}
, 			{
				"patchline" : 				{
					"destination" : [ "obj-43", 0 ],
					"disabled" : 0,
					"hidden" : 0,
					"source" : [ "obj-68", 0 ]
				}

			}
, 			{
				"patchline" : 				{
					"destination" : [ "obj-72", 0 ],
					"disabled" : 0,
					"hidden" : 0,
					"source" : [ "obj-68", 0 ]
				}

			}
, 			{
				"patchline" : 				{
					"destination" : [ "obj-43", 0 ],
					"disabled" : 0,
					"hidden" : 0,
					"midpoints" : [ 1247.0, 593.0, 1347.5, 593.0, 1347.5, 226.5, 1099.0, 226.5 ],
					"source" : [ "obj-71", 0 ]
				}

			}
, 			{
				"patchline" : 				{
					"destination" : [ "obj-71", 0 ],
					"disabled" : 0,
					"hidden" : 0,
					"source" : [ "obj-72", 2 ]
				}

			}
, 			{
				"patchline" : 				{
					"destination" : [ "obj-87", 3 ],
					"disabled" : 0,
					"hidden" : 0,
					"source" : [ "obj-72", 1 ]
				}

			}
, 			{
				"patchline" : 				{
					"destination" : [ "obj-87", 1 ],
					"disabled" : 0,
					"hidden" : 0,
					"source" : [ "obj-72", 0 ]
				}

			}
, 			{
				"patchline" : 				{
					"destination" : [ "obj-29", 0 ],
					"disabled" : 0,
					"hidden" : 0,
					"source" : [ "obj-74", 0 ]
				}

			}
, 			{
				"patchline" : 				{
					"destination" : [ "obj-97", 0 ],
					"disabled" : 0,
					"hidden" : 0,
					"source" : [ "obj-74", 0 ]
				}

			}
, 			{
				"patchline" : 				{
					"destination" : [ "obj-77", 0 ],
					"disabled" : 0,
					"hidden" : 1,
					"source" : [ "obj-75", 0 ]
				}

			}
, 			{
				"patchline" : 				{
					"destination" : [ "obj-4", 6 ],
					"disabled" : 0,
					"hidden" : 0,
					"source" : [ "obj-76", 0 ]
				}

			}
, 			{
				"patchline" : 				{
					"destination" : [ "obj-5", 6 ],
					"disabled" : 0,
					"hidden" : 0,
					"source" : [ "obj-76", 0 ]
				}

			}
, 			{
				"patchline" : 				{
					"destination" : [ "obj-6", 6 ],
					"disabled" : 0,
					"hidden" : 0,
					"source" : [ "obj-76", 0 ]
				}

			}
, 			{
				"patchline" : 				{
					"destination" : [ "obj-87", 6 ],
					"disabled" : 0,
					"hidden" : 0,
					"source" : [ "obj-76", 0 ]
				}

			}
, 			{
				"patchline" : 				{
					"destination" : [ "obj-98", 0 ],
					"disabled" : 0,
					"hidden" : 0,
					"source" : [ "obj-76", 0 ]
				}

			}
, 			{
				"patchline" : 				{
					"destination" : [ "obj-76", 0 ],
					"disabled" : 0,
					"hidden" : 1,
					"source" : [ "obj-77", 0 ]
				}

			}
, 			{
				"patchline" : 				{
					"destination" : [ "obj-72", 3 ],
					"disabled" : 0,
					"hidden" : 0,
					"source" : [ "obj-78", 0 ]
				}

			}
, 			{
				"patchline" : 				{
					"destination" : [ "obj-168", 0 ],
					"disabled" : 0,
					"hidden" : 0,
					"source" : [ "obj-87", 0 ]
				}

			}
, 			{
				"patchline" : 				{
					"destination" : [ "obj-50", 0 ],
					"disabled" : 0,
					"hidden" : 0,
					"source" : [ "obj-87", 1 ]
				}

			}
, 			{
				"patchline" : 				{
					"destination" : [ "obj-72", 5 ],
					"disabled" : 0,
					"hidden" : 0,
					"source" : [ "obj-88", 1 ]
				}

			}
, 			{
				"patchline" : 				{
					"destination" : [ "obj-72", 4 ],
					"disabled" : 0,
					"hidden" : 0,
					"source" : [ "obj-88", 0 ]
				}

			}
, 			{
				"patchline" : 				{
					"destination" : [ "obj-88", 0 ],
					"disabled" : 0,
					"hidden" : 0,
					"source" : [ "obj-89", 0 ]
				}

			}
, 			{
				"patchline" : 				{
					"destination" : [ "obj-88", 1 ],
					"disabled" : 0,
					"hidden" : 0,
					"source" : [ "obj-90", 0 ]
				}

			}
, 			{
				"patchline" : 				{
					"destination" : [ "obj-89", 0 ],
					"disabled" : 0,
					"hidden" : 0,
					"source" : [ "obj-91", 0 ]
				}

			}
, 			{
				"patchline" : 				{
					"destination" : [ "obj-90", 0 ],
					"disabled" : 0,
					"hidden" : 0,
					"source" : [ "obj-91", 0 ]
				}

			}
, 			{
				"patchline" : 				{
					"destination" : [ "obj-93", 0 ],
					"disabled" : 0,
					"hidden" : 0,
					"source" : [ "obj-92", 0 ]
				}

			}
, 			{
				"patchline" : 				{
					"destination" : [ "obj-94", 0 ],
					"disabled" : 0,
					"hidden" : 0,
					"source" : [ "obj-92", 0 ]
				}

			}
, 			{
				"patchline" : 				{
					"destination" : [ "obj-95", 1 ],
					"disabled" : 0,
					"hidden" : 0,
					"source" : [ "obj-93", 0 ]
				}

			}
, 			{
				"patchline" : 				{
					"destination" : [ "obj-95", 0 ],
					"disabled" : 0,
					"hidden" : 0,
					"source" : [ "obj-94", 0 ]
				}

			}
, 			{
				"patchline" : 				{
					"destination" : [ "obj-54", 5 ],
					"disabled" : 0,
					"hidden" : 0,
					"source" : [ "obj-95", 1 ]
				}

			}
, 			{
				"patchline" : 				{
					"destination" : [ "obj-54", 4 ],
					"disabled" : 0,
					"hidden" : 0,
					"source" : [ "obj-95", 0 ]
				}

			}
, 			{
				"patchline" : 				{
					"destination" : [ "obj-50", 0 ],
					"disabled" : 0,
					"hidden" : 0,
					"source" : [ "obj-96", 0 ]
				}

			}
, 			{
				"patchline" : 				{
					"destination" : [ "obj-168", 0 ],
					"disabled" : 0,
					"hidden" : 0,
					"source" : [ "obj-99", 0 ]
				}

			}
 ],
		"parameters" : 		{
			"obj-1::obj-13::obj-21" : [ "live.dial", "live.dial", 0 ],
			"obj-2::obj-13::obj-21" : [ "live.dial[1]", "live.dial", 0 ]
		}
,
		"dependency_cache" : [ 			{
				"name" : "OMax.Impro-Dual.maxpat",
				"bootpath" : "/Users/blevy/Projets/OMax/Dev-Forge/patches",
				"patcherrelativepath" : ".",
				"type" : "JSON",
				"implicit" : 1
			}
, 			{
				"name" : "OMax.Impro-Pick.maxpat",
				"bootpath" : "/Users/blevy/Projets/OMax/Dev-Forge/patches",
				"patcherrelativepath" : ".",
				"type" : "JSON",
				"implicit" : 1
			}
, 			{
				"name" : "OMax.Impro-OracleCollect.maxpat",
				"bootpath" : "/Users/blevy/Projets/OMax/Dev-Forge/patches",
				"patcherrelativepath" : ".",
				"type" : "JSON",
				"implicit" : 1
			}
, 			{
				"name" : "OMax.Impro-Win2States.maxpat",
				"bootpath" : "/Users/blevy/Projets/OMax/Dev-Forge/patches",
				"patcherrelativepath" : ".",
				"type" : "JSON",
				"implicit" : 1
			}
, 			{
				"name" : "OMax.Impro-Collect.maxpat",
				"bootpath" : "/Users/blevy/Projets/OMax/Dev-Forge/patches",
				"patcherrelativepath" : ".",
				"type" : "JSON",
				"implicit" : 1
			}
, 			{
				"name" : "OMax.Impro-SearchWin.maxpat",
				"bootpath" : "/Users/blevy/Projets/OMax/Dev-Forge/patches",
				"patcherrelativepath" : ".",
				"type" : "JSON",
				"implicit" : 1
			}
, 			{
				"name" : "OMax.Impro-Region.maxpat",
				"bootpath" : "/Users/blevy/Projets/OMax/Dev-Forge/patches",
				"patcherrelativepath" : ".",
				"type" : "JSON",
				"implicit" : 1
			}
, 			{
				"name" : "thru.maxpat",
				"bootpath" : "/Applications/Max 6.1/patches/m4l-patches/Pluggo for Live resources/patches",
				"patcherrelativepath" : "../../../../../../Applications/Max 6.1/patches/m4l-patches/Pluggo for Live resources/patches",
				"type" : "JSON",
				"implicit" : 1
			}
, 			{
				"name" : "OMax.Impro-Taboo.maxpat",
				"bootpath" : "/Users/blevy/Projets/OMax/Dev-Forge/patches",
				"patcherrelativepath" : ".",
				"type" : "JSON",
				"implicit" : 1
			}
, 			{
				"name" : "OMax.Impro-Energy.maxpat",
				"bootpath" : "/Users/blevy/Projets/OMax/Dev-Forge/patches",
				"patcherrelativepath" : ".",
				"type" : "JSON",
				"implicit" : 1
			}
, 			{
				"name" : "OMax.Impro-Context.maxpat",
				"bootpath" : "/Users/blevy/Projets/OMax/Dev-Forge/patches",
				"patcherrelativepath" : ".",
				"type" : "JSON",
				"implicit" : 1
			}
, 			{
				"name" : "OMax.Impro-Weight.maxpat",
				"bootpath" : "/Users/blevy/Projets/OMax/Dev-Forge/patches",
				"patcherrelativepath" : ".",
				"type" : "JSON",
				"implicit" : 1
			}
, 			{
				"name" : "OMax.Visu-Player.maxpat",
				"bootpath" : "/Users/blevy/Projets/OMax/Dev-Forge/patches",
				"patcherrelativepath" : ".",
				"type" : "JSON",
				"implicit" : 1
			}
, 			{
				"name" : "OMax.Region-Switch.maxpat",
				"bootpath" : "/Users/blevy/Projets/OMax/Dev-Forge/patches",
				"patcherrelativepath" : ".",
				"type" : "JSON",
				"implicit" : 1
			}
, 			{
				"name" : "OMax.AudioOut-Stereo.maxpat",
				"bootpath" : "/Users/blevy/Projets/OMax/Dev-Forge/patches",
				"patcherrelativepath" : ".",
				"type" : "JSON",
				"implicit" : 1
			}
, 			{
				"name" : "OMax.Region-Extend.maxpat",
				"bootpath" : "/Users/blevy/Projets/OMax/Dev-Forge/patches",
				"patcherrelativepath" : ".",
				"type" : "JSON",
				"implicit" : 1
			}
, 			{
				"name" : "fr.maxpat",
				"bootpath" : "/Users/blevy/Max6.1/Utiles",
				"patcherrelativepath" : "../../../../Max6.1/Utiles",
				"type" : "JSON",
				"implicit" : 1
			}
, 			{
				"name" : "OMax.Region-Follow.maxpat",
				"bootpath" : "/Users/blevy/Projets/OMax/Dev-Forge/patches",
				"patcherrelativepath" : ".",
				"type" : "JSON",
				"implicit" : 1
			}
, 			{
				"name" : "OMax.Player.st.maxpat",
				"bootpath" : "/Users/blevy/Projets/OMax/Dev-Forge/patches",
				"patcherrelativepath" : ".",
				"type" : "JSON",
				"implicit" : 1
			}
, 			{
				"name" : "OMax.Impro-Play.st.maxpat",
				"bootpath" : "/Users/blevy/Projets/OMax/Dev-Forge/patches",
				"patcherrelativepath" : ".",
				"type" : "JSON",
				"implicit" : 1
			}
, 			{
				"name" : "OMax.SVP-Player.st.maxpat",
				"bootpath" : "/Users/blevy/Projets/OMax/Dev-Forge/patches",
				"patcherrelativepath" : ".",
				"type" : "JSON",
				"implicit" : 1
			}
, 			{
				"name" : "OMax.SVP-Play.st.maxpat",
				"bootpath" : "/Users/blevy/Projets/OMax/Dev-Forge/patches",
				"patcherrelativepath" : ".",
				"type" : "JSON",
				"implicit" : 1
			}
, 			{
				"name" : "OMax.Impro-Simple.maxpat",
				"bootpath" : "/Users/blevy/Projets/OMax/Dev-Forge/patches",
				"patcherrelativepath" : ".",
				"type" : "JSON",
				"implicit" : 1
			}
, 			{
				"name" : "OMax.SVP-Control.maxpat",
				"bootpath" : "/Users/blevy/Projets/OMax/Dev-Forge/patches",
				"patcherrelativepath" : ".",
				"type" : "JSON",
				"implicit" : 1
			}
, 			{
				"name" : "OMax.id2state.mxo",
				"type" : "iLaX"
			}
, 			{
				"name" : "OMax.SLT.mxo",
				"type" : "iLaX"
			}
, 			{
				"name" : "OMax.state2id.mxo",
				"type" : "iLaX"
			}
, 			{
				"name" : "OMax.render.mxo",
				"type" : "iLaX"
			}
, 			{
				"name" : "supervp.scrub~.mxo",
				"type" : "iLaX"
			}
 ]
	}

}
